<svg id="icon_global_network" xmlns="http://www.w3.org/2000/svg" width="24" height="24" viewBox="0 0 24 24">
  <rect id="長方形_1277" data-name="長方形 1277" width="24" height="24" fill="none"/>
  <path id="パス_10427" data-name="パス 10427" d="M2022.444,554.317a7.9,7.9,0,1,0,7.9,7.9A7.909,7.909,0,0,0,2022.444,554.317Zm6.675,7.3h-1.964a10.457,10.457,0,0,0-1.549-5.313A6.713,6.713,0,0,1,2029.119,561.62Zm-7.272-6v6h-2.918C2019.076,558.631,2020.307,556.143,2021.846,555.62Zm0,7.194v6c-1.539-.523-2.771-3.011-2.918-6Zm1.2,6v-6h2.918C2025.812,565.8,2024.581,568.291,2023.042,568.814Zm0-7.194v-6c1.539.523,2.771,3.011,2.918,6Zm-3.758-5.313a10.463,10.463,0,0,0-1.549,5.313h-1.964A6.712,6.712,0,0,1,2019.283,556.307Zm-3.514,6.508h1.964a10.463,10.463,0,0,0,1.549,5.313A6.712,6.712,0,0,1,2015.77,562.815Zm9.835,5.313a10.457,10.457,0,0,0,1.549-5.313h1.964A6.713,6.713,0,0,1,2025.6,568.127Z" transform="translate(-2010.444 -550.217)" fill="#97999b"/>
</svg>
